<?xml version="1.0" standalone="yes"?>

<svg height="400" width="400">


<path xmlns="http://www.w3.org/2000/svg" d="M38.703,61.225c-0.527-0.639-1.472-0.73-2.111-0.204l-2.715,2.236c-0.64,0.527-0.731,1.473-0.204,2.112  c0.296,0.359,0.726,0.546,1.159,0.546c0.335,0,0.673-0.112,0.953-0.342l2.715-2.236C39.139,62.81,39.23,61.864,38.703,61.225z   M40.051,68.083c-0.75-0.351-1.643-0.025-1.993,0.726l-1.901,4.078c-0.35,0.751-0.025,1.644,0.726,1.993  c0.205,0.096,0.42,0.141,0.633,0.141c0.565,0,1.106-0.32,1.36-0.866l1.901-4.078C41.127,69.325,40.802,68.433,40.051,68.083z   M46.185,64.706H46.17c-0.829,0.008-1.494,0.686-1.486,1.514l0.033,3.519c0.008,0.823,0.678,1.485,1.5,1.485h0.015  c0.829-0.008,1.494-0.686,1.486-1.514l-0.033-3.519C47.676,65.368,47.006,64.706,46.185,64.706z M71.693,71.262  c-0.402-1.084-1.18-2.237-2.189-3.246c-1.567-1.568-3.38-2.506-4.849-2.506c-0.996,0-1.62,0.415-1.967,0.763l-0.001,0.001  L59.58,69.38c-1.27,1.27-0.889,3.582,0.835,5.788c-0.906,1.306-1.399,2.852-1.399,4.477c0,1.413-1.149,2.563-2.563,2.563  s-2.563-1.149-2.563-2.563c0-2.309-1.878-4.188-4.187-4.188h-0.103c6.091-6.037,11.41-13.354,14.841-20.713  c3.268-7.006,5.501-15.474,5.976-22.651c0.58-8.77-1.448-14.494-5.865-16.553c-1.069-0.499-2.24-0.752-3.479-0.752  c-8.857,0-20.644,13.515-26.483,26.036c-5.584,11.978-7.884,27.714-5.859,40.091c0.071,0.432,0.326,0.811,0.699,1.038  c0.374,0.229,0.828,0.281,1.243,0.146l3.346-1.083l1.321,3.259c0.165,0.405,0.497,0.719,0.911,0.858  c0.156,0.052,0.318,0.078,0.479,0.078c0.267,0,0.531-0.071,0.766-0.21c3.014-1.789,6.007-4.018,8.884-6.545h3.323  c0.654,0,1.187,0.532,1.187,1.188c0,3.067,2.495,5.563,5.563,5.563s5.563-2.495,5.563-5.563c0-0.83,0.227-1.618,0.614-2.326  c1.232,0.896,2.484,1.375,3.555,1.374c0.769,0,1.445-0.244,1.954-0.753l3.107-3.107C71.729,74.35,72.429,73.243,71.693,71.262z   M61.073,17.788c0.797,0,1.541,0.158,2.211,0.471c4.255,1.984,4.42,9.395,4.14,13.636c-0.399,6.048-2.123,13.066-4.678,19.24  l-5.972-16.409c-0.136-0.374-0.415-0.678-0.775-0.846c-0.36-0.169-0.773-0.186-1.146-0.05l-16.408,5.972  C44.119,28.961,54.231,17.788,61.073,17.788z M36.647,43.588c0.127-0.011,0.254-0.033,0.379-0.078l17.442-6.349l6.349,17.443  c0.045,0.125,0.114,0.232,0.187,0.337c-0.63,1.256-1.315,2.506-2.05,3.746l-5.852-16.083c-0.136-0.374-0.415-0.679-0.775-0.847  c-0.36-0.169-0.773-0.185-1.146-0.05l-16.083,5.854C35.576,46.204,36.092,44.876,36.647,43.588z M37.453,81.502l-1.178-2.905  c-0.235-0.58-0.794-0.937-1.39-0.937c-0.153,0-0.309,0.023-0.462,0.073l-2.982,0.965c-1.083-8.53-0.132-18.493,2.492-27.521  l16.864-6.138l6.137,16.864C51.705,69.718,44.684,76.849,37.453,81.502z M66.133,75.703c-0.363-0.019-1.447-0.386-2.687-1.625  c-0.001,0-0.001-0.001-0.002-0.002s-0.002-0.001-0.003-0.002c-1.239-1.241-1.606-2.325-1.625-2.688l0.771-0.771  c0.437,0.846,1.069,1.702,1.842,2.475c0.787,0.787,1.636,1.415,2.472,1.845L66.133,75.703z M66.551,70.969  c-1.004-1.005-1.437-1.907-1.575-2.407c0.541,0.147,1.452,0.619,2.407,1.575c1.004,1.004,1.437,1.906,1.575,2.406  C68.417,72.396,67.506,71.924,66.551,70.969z"></path>


</svg>